<?xml version="1.0" encoding="UTF-8" standalone="no"?>
<svg
   width="30"
   height="30"
   viewBox="0 0 30 30"
   fill="none"
   version="1.1"
   xmlns="http://www.w3.org/2000/svg">
  <!-- 8-tooth gear: root half-angle=14deg, tip half-angle=7deg (tapers inward) -->
  <path
     d="M 12.82,6.27 L 13.42,2.10 L 16.58,2.10 L 17.18,6.27
        A 9,9 0 0,1 19.64,7.29 L 23.00,4.76 L 25.24,7.00 L 22.71,10.37
        A 9,9 0 0,1 23.73,12.82 L 27.90,13.42 L 27.90,16.58 L 23.73,17.18
        A 9,9 0 0,1 22.71,19.64 L 25.24,23.00 L 23.00,25.24 L 19.64,22.71
        A 9,9 0 0,1 17.18,23.73 L 16.58,27.90 L 13.42,27.90 L 12.82,23.73
        A 9,9 0 0,1 10.37,22.71 L 7.00,25.24 L 4.76,23.00 L 7.29,19.64
        A 9,9 0 0,1 6.27,17.18 L 2.10,16.58 L 2.10,13.42 L 6.27,12.82
        A 9,9 0 0,1 7.29,10.37 L 4.76,7.00 L 7.00,4.76 L 10.37,7.29
        A 9,9 0 0,1 12.82,6.27 Z"
     fill="#eef3fb"
     stroke="#1f1f1f"
     stroke-width="1.5"
     stroke-linejoin="miter"
     stroke-linecap="butt" />
  <circle
     cx="15"
     cy="15"
     r="4.5"
     fill="#ffffff"
     stroke="#1f1f1f"
     stroke-width="1.8" />
</svg>
